<mxfile host="app.diagrams.net" modified="2024-05-08T03:53:30.231Z" agent="Mozilla/5.0 (Windows NT 10.0; Win64; x64) AppleWebKit/537.36 (KHTML, like Gecko) Chrome/124.0.0.0 Safari/537.36 Edg/124.0.0.0" etag="qOHEDTZYg3AiqAKmIQTi" version="24.3.1" type="device">
  <diagram id="C5RBs43oDa-KdzZeNtuy" name="Page-1">
    <mxGraphModel dx="978" dy="545" grid="1" gridSize="10" guides="1" tooltips="1" connect="1" arrows="1" fold="1" page="1" pageScale="1" pageWidth="827" pageHeight="1169" background="none" math="0" shadow="0">
      <root>
        <mxCell id="WIyWlLk6GJQsqaUBKTNV-0" />
        <mxCell id="WIyWlLk6GJQsqaUBKTNV-1" parent="WIyWlLk6GJQsqaUBKTNV-0" />
        <mxCell id="SrjA0HP9joV4kQ8oIA7r-4" style="edgeStyle=orthogonalEdgeStyle;rounded=0;orthogonalLoop=1;jettySize=auto;html=1;exitX=0.5;exitY=0;exitDx=0;exitDy=0;entryX=1;entryY=0.5;entryDx=0;entryDy=0;" edge="1" parent="WIyWlLk6GJQsqaUBKTNV-1" target="SrjA0HP9joV4kQ8oIA7r-0">
          <mxGeometry relative="1" as="geometry">
            <mxPoint x="674" y="240" as="sourcePoint" />
          </mxGeometry>
        </mxCell>
        <mxCell id="WIyWlLk6GJQsqaUBKTNV-6" value="PassWord Benar" style="rhombus;whiteSpace=wrap;html=1;shadow=0;fontFamily=Helvetica;fontSize=12;align=center;strokeWidth=1;spacing=6;spacingTop=-4;" parent="WIyWlLk6GJQsqaUBKTNV-1" vertex="1">
          <mxGeometry x="622" y="240" width="100" height="80" as="geometry" />
        </mxCell>
        <mxCell id="SrjA0HP9joV4kQ8oIA7r-6" style="edgeStyle=orthogonalEdgeStyle;rounded=0;orthogonalLoop=1;jettySize=auto;html=1;exitX=0.5;exitY=1;exitDx=0;exitDy=0;entryX=0.5;entryY=0;entryDx=0;entryDy=0;" edge="1" parent="WIyWlLk6GJQsqaUBKTNV-1" source="-O_b5KxTsku7lGpKvVqD-3" target="SrjA0HP9joV4kQ8oIA7r-0">
          <mxGeometry relative="1" as="geometry" />
        </mxCell>
        <mxCell id="SrjA0HP9joV4kQ8oIA7r-13" style="edgeStyle=orthogonalEdgeStyle;rounded=0;orthogonalLoop=1;jettySize=auto;html=1;exitX=0;exitY=0.5;exitDx=0;exitDy=0;entryX=0.5;entryY=0;entryDx=0;entryDy=0;" edge="1" parent="WIyWlLk6GJQsqaUBKTNV-1" source="-O_b5KxTsku7lGpKvVqD-3" target="SrjA0HP9joV4kQ8oIA7r-12">
          <mxGeometry relative="1" as="geometry" />
        </mxCell>
        <mxCell id="-O_b5KxTsku7lGpKvVqD-3" value="Mulai" style="ellipse;whiteSpace=wrap;html=1;" parent="WIyWlLk6GJQsqaUBKTNV-1" vertex="1">
          <mxGeometry x="431.5" y="20" width="105" height="70" as="geometry" />
        </mxCell>
        <mxCell id="-O_b5KxTsku7lGpKvVqD-12" style="edgeStyle=orthogonalEdgeStyle;rounded=0;orthogonalLoop=1;jettySize=auto;html=1;exitX=1;exitY=0.5;exitDx=0;exitDy=0;entryX=0;entryY=0.5;entryDx=0;entryDy=0;" parent="WIyWlLk6GJQsqaUBKTNV-1" source="-O_b5KxTsku7lGpKvVqD-4" edge="1">
          <mxGeometry relative="1" as="geometry">
            <mxPoint x="624" y="280" as="targetPoint" />
          </mxGeometry>
        </mxCell>
        <mxCell id="-O_b5KxTsku7lGpKvVqD-17" style="edgeStyle=orthogonalEdgeStyle;rounded=0;orthogonalLoop=1;jettySize=auto;html=1;exitX=0.5;exitY=1;exitDx=0;exitDy=0;entryX=0.5;entryY=0;entryDx=0;entryDy=0;" parent="WIyWlLk6GJQsqaUBKTNV-1" target="-O_b5KxTsku7lGpKvVqD-16" edge="1">
          <mxGeometry relative="1" as="geometry">
            <mxPoint x="674" y="320" as="sourcePoint" />
          </mxGeometry>
        </mxCell>
        <mxCell id="-O_b5KxTsku7lGpKvVqD-4" value="Masukkan Username dan&lt;div&gt;Password&lt;/div&gt;" style="shape=parallelogram;perimeter=parallelogramPerimeter;whiteSpace=wrap;html=1;fixedSize=1;" parent="WIyWlLk6GJQsqaUBKTNV-1" vertex="1">
          <mxGeometry x="380.75" y="250" width="186.5" height="60" as="geometry" />
        </mxCell>
        <mxCell id="-O_b5KxTsku7lGpKvVqD-5" value="Selesai" style="ellipse;whiteSpace=wrap;html=1;" parent="WIyWlLk6GJQsqaUBKTNV-1" vertex="1">
          <mxGeometry x="421.5" y="580" width="105" height="70" as="geometry" />
        </mxCell>
        <mxCell id="-O_b5KxTsku7lGpKvVqD-20" style="edgeStyle=orthogonalEdgeStyle;rounded=0;orthogonalLoop=1;jettySize=auto;html=1;exitX=0.5;exitY=1;exitDx=0;exitDy=0;entryX=0.5;entryY=0;entryDx=0;entryDy=0;" parent="WIyWlLk6GJQsqaUBKTNV-1" source="-O_b5KxTsku7lGpKvVqD-8" target="-O_b5KxTsku7lGpKvVqD-5" edge="1">
          <mxGeometry relative="1" as="geometry" />
        </mxCell>
        <mxCell id="-O_b5KxTsku7lGpKvVqD-8" value="Menu Utama" style="rounded=1;whiteSpace=wrap;html=1;fontSize=12;glass=0;strokeWidth=1;shadow=0;" parent="WIyWlLk6GJQsqaUBKTNV-1" vertex="1">
          <mxGeometry x="384" y="480" width="180" height="60" as="geometry" />
        </mxCell>
        <mxCell id="-O_b5KxTsku7lGpKvVqD-18" style="edgeStyle=orthogonalEdgeStyle;rounded=0;orthogonalLoop=1;jettySize=auto;html=1;exitX=0.5;exitY=1;exitDx=0;exitDy=0;" parent="WIyWlLk6GJQsqaUBKTNV-1" source="-O_b5KxTsku7lGpKvVqD-16" target="-O_b5KxTsku7lGpKvVqD-8" edge="1">
          <mxGeometry relative="1" as="geometry" />
        </mxCell>
        <mxCell id="-O_b5KxTsku7lGpKvVqD-16" value="Login Sukses" style="shape=parallelogram;perimeter=parallelogramPerimeter;whiteSpace=wrap;html=1;fixedSize=1;" parent="WIyWlLk6GJQsqaUBKTNV-1" vertex="1">
          <mxGeometry x="384" y="380" width="180" height="60" as="geometry" />
        </mxCell>
        <mxCell id="SrjA0HP9joV4kQ8oIA7r-0" value="Login Page" style="rounded=1;whiteSpace=wrap;html=1;" vertex="1" parent="WIyWlLk6GJQsqaUBKTNV-1">
          <mxGeometry x="384" y="142" width="200" height="60" as="geometry" />
        </mxCell>
        <mxCell id="SrjA0HP9joV4kQ8oIA7r-5" style="edgeStyle=orthogonalEdgeStyle;rounded=0;orthogonalLoop=1;jettySize=auto;html=1;exitX=0.5;exitY=1;exitDx=0;exitDy=0;entryX=0.554;entryY=0.015;entryDx=0;entryDy=0;entryPerimeter=0;" edge="1" parent="WIyWlLk6GJQsqaUBKTNV-1" source="SrjA0HP9joV4kQ8oIA7r-0" target="-O_b5KxTsku7lGpKvVqD-4">
          <mxGeometry relative="1" as="geometry" />
        </mxCell>
        <mxCell id="SrjA0HP9joV4kQ8oIA7r-8" value="Ya" style="text;strokeColor=none;align=center;fillColor=none;html=1;verticalAlign=middle;whiteSpace=wrap;rounded=0;" vertex="1" parent="WIyWlLk6GJQsqaUBKTNV-1">
          <mxGeometry x="570" y="320" width="60" height="30" as="geometry" />
        </mxCell>
        <mxCell id="SrjA0HP9joV4kQ8oIA7r-9" value="Tidak" style="text;strokeColor=none;align=center;fillColor=none;html=1;verticalAlign=middle;whiteSpace=wrap;rounded=0;" vertex="1" parent="WIyWlLk6GJQsqaUBKTNV-1">
          <mxGeometry x="623" y="191" width="60" height="30" as="geometry" />
        </mxCell>
        <mxCell id="SrjA0HP9joV4kQ8oIA7r-15" style="edgeStyle=orthogonalEdgeStyle;rounded=0;orthogonalLoop=1;jettySize=auto;html=1;exitX=0.5;exitY=1;exitDx=0;exitDy=0;entryX=0.5;entryY=0;entryDx=0;entryDy=0;" edge="1" parent="WIyWlLk6GJQsqaUBKTNV-1" source="SrjA0HP9joV4kQ8oIA7r-12">
          <mxGeometry relative="1" as="geometry">
            <mxPoint x="280" y="270" as="targetPoint" />
          </mxGeometry>
        </mxCell>
        <mxCell id="SrjA0HP9joV4kQ8oIA7r-12" value="SigUp" style="rounded=1;whiteSpace=wrap;html=1;" vertex="1" parent="WIyWlLk6GJQsqaUBKTNV-1">
          <mxGeometry x="220" y="142" width="120" height="60" as="geometry" />
        </mxCell>
        <mxCell id="SrjA0HP9joV4kQ8oIA7r-16" style="edgeStyle=orthogonalEdgeStyle;rounded=0;orthogonalLoop=1;jettySize=auto;html=1;exitX=1;exitY=0.5;exitDx=0;exitDy=0;entryX=0;entryY=0.5;entryDx=0;entryDy=0;" edge="1" parent="WIyWlLk6GJQsqaUBKTNV-1" target="SrjA0HP9joV4kQ8oIA7r-0">
          <mxGeometry relative="1" as="geometry">
            <mxPoint x="320" y="310" as="sourcePoint" />
          </mxGeometry>
        </mxCell>
        <mxCell id="SrjA0HP9joV4kQ8oIA7r-17" value="Registrasi" style="shape=dataStorage;whiteSpace=wrap;html=1;fixedSize=1;align=center;" vertex="1" parent="WIyWlLk6GJQsqaUBKTNV-1">
          <mxGeometry x="220" y="270" width="120" height="80" as="geometry" />
        </mxCell>
      </root>
    </mxGraphModel>
  </diagram>
</mxfile>
